# xmcd
#
# Track frame offsets:
#	150
#	10267
#	25559
#	40428
#	49883
#	65498
#	79867
#	90393
#	109753
#	124769
#	139145
#	158037
#	166372
#	178603
#	191977
#	203027
#
# Disc length: 2855 seconds
#
# Revision: 1
# Processed by: cddbd v1.5.1PL2 Copyright (c) Steve Scherf et al.
# Submitted via: audiograbber 1.83.01
#
DISCID=d50b2510
DTITLE=Verschiedene - The Country Collection - Country Bands
DYEAR=2005
DGENRE=Country
TTITLE0=Flying Burrito Brothers - Baby , how'd we ever get this way
TTITLE1=Alabama - Patches
TTITLE2=The Kingston Trio - Tom Dooley
TTITLE3=The Louvin Brothers - I don't believe you've met my Baby
TTITLE4=Kenny Rogers - Tulsa Turnaround
TTITLE5=Exile - Woke up in Love
TTITLE6=Superstars Nashville - Kansas City
TTITLE7=Flying Burrito Brothers - Dammed if I'll be lonely tonight
TTITLE8=Sweethearts - Of the Rodeo chains of gold
TTITLE9=The Carter Family - Wildwood Flower
TTITLE10=Alabama - I want to be with you tonight
TTITLE11=The Harden Trio - Sneaking across the border
TTITLE12=The Kingston Trio - Greenback Dollar
TTITLE13=Kenny Rogers - Sleep comes Easy
TTITLE14=The Louvin Brothers - When i stop dreaming
TTITLE15=The Willis Brothers - Give me 40 Acres
EXTD=
EXTT0=
EXTT1=
EXTT2=
EXTT3=
EXTT4=
EXTT5=
EXTT6=
EXTT7=
EXTT8=
EXTT9=
EXTT10=
EXTT11=
EXTT12=
EXTT13=
EXTT14=
EXTT15=
PLAYORDER=
